# xmcd
#
# Track frame offsets: 
#        150
#        14051
#        29310
#        42649
#        59080
#        72881
#        87218
#        106330
#        124085
#        140061
#        160786
#        179338
#        199428
#        217362
#        233681
#
# Disc length: 3357 seconds
#
# Revision: 0
# Processed by: cddbd v1.5.2PL0 Copyright (c) Steve Scherf et al.
# Submitted via: ExactAudioCopyFreeDBPlugin 1.0
#
DISCID=e90d1b0f
DTITLE=Eric Michael Hopper - Cross Over
DYEAR=2006
DGENRE=Country
TTITLE0=Love At First Sight
TTITLE1=Thanks For The Song
TTITLE2=Everything
TTITLE3=The One
TTITLE4=Ordinary Life
TTITLE5=Will You Remember Me
TTITLE6=Last Three Days
TTITLE7=I Want To Be
TTITLE8=Crazy (I've Been A Fool)
TTITLE9=Rain
TTITLE10=Crawl Out
TTITLE11=One Day
TTITLE12=Border Town
TTITLE13=Just Around The Corner
TTITLE14=Break There Chains
EXTD=
EXTT0=
EXTT1=
EXTT2=
EXTT3=
EXTT4=
EXTT5=
EXTT6=
EXTT7=
EXTT8=
EXTT9=
EXTT10=
EXTT11=
EXTT12=
EXTT13=
EXTT14=
PLAYORDER=
